<svg class="svg-icon" style="width: 1em; height: 1em;vertical-align: middle;fill: currentColor;overflow: hidden;" viewBox="0 0 1024 1024" version="1.1" xmlns="http://www.w3.org/2000/svg"><path d="M64.011 649.83c0.012-2.555 0.014-4.303 0.012-5.936-0.002-0.319-0.012-0.636-0.012-0.955 0-5.477-0.025 12.237 0 6.891z"  /><path d="M635.179 443.085c-13.3 0-26.254 1.392-38.765 3.94-37.777-60.24-104.584-100.421-180.936-100.421-86.238 0-160.352 51.202-194.098 124.771-88.151 7.273-157.369 78.161-157.369 164.673 0 3.582 0.01 5.607 0.012 7.847 0.519 71.58 59.23 129.984 130.927 129.984h496.189c70.634 0 128.666-56.685 130.867-126.81-0.203-7.659-0.48-17.61-0.48-24.803 0-98.96-83.43-179.181-186.347-179.181zM822.078 642.939c0 1.382-0.029 2.757-0.072 4.128l0.072 2.763c0.206 8.07 0-15.244 0-6.891z"  /><path d="M809.2 327.93c-10.724 0-21.171 1.123-31.261 3.177-30.465-48.581-84.342-80.985-145.916-80.985-58.157 0-109.396 28.934-140.559 73.083 50.709 18.018 93.47 52.798 121.638 97.714 13.874-2.825 28.236-4.369 42.984-4.369 106.771 0 194.601 77.881 205.467 177.78 54.099-3.716 97.289-48.558 98.276-103.333-0.158-5.961-0.348-13.183-0.348-18.568 0-79.805-67.283-144.499-150.281-144.499z"  /><path d="M959.925 489.102c0 0.639-0.084 1.259-0.096 1.895 0.034 1.264 0.069 2.552 0.096 3.663 0.168 6.507 0-12.294 0-5.558z"  /></svg>